# Blender v2.77 (sub 0) OBJ File: 'foot.blend'
# www.blender.org
mtllib foot.mtl
o Cube
v 0.240000 -0.120000 -0.120000
v 0.240000 -0.120000 0.120000
v -0.120000 -0.120000 0.120000
v -0.120000 -0.120000 -0.120000
v 0.120000 0.120000 -0.120000
v 0.120000 0.120000 0.120000
v -0.120000 0.120000 0.120000
v -0.120000 0.120000 -0.120000
v 0.120000 0.000000 -0.120000
v 0.120000 0.000000 0.120000
v -0.120000 0.000000 0.120000
v -0.120000 0.000000 -0.120000
vt 0.6667 0.0000
vt 0.3333 0.5000
vt 0.3333 0.0000
vt 1.0000 0.0000
vt 0.6667 0.3333
vt 0.6667 0.0000
vt 0.8333 0.6667
vt 1.0000 0.3333
vt 1.0000 0.6667
vt 0.3333 0.6667
vt 0.1667 1.0000
vt 0.1667 0.6667
vt 0.3333 0.8333
vt 0.5000 0.5000
vt 0.5000 0.8333
vt 0.1667 0.1667
vt 0.1667 0.5000
vt 0.0000 0.5000
vt 0.0000 0.1667
vt 0.6667 0.8333
vt 0.6667 0.5000
vt 0.0000 1.0000
vt 0.0000 0.5000
vt 0.6667 0.6667
vt 0.8333 0.3333
vt 0.8333 0.6667
vt 0.6667 0.5000
vt 1.0000 0.3333
vt 0.8333 0.3333
vt 0.3333 1.0000
vt 0.3333 0.5000
vt 0.6667 0.3333
vn 0.0000 -1.0000 0.0000
vn 0.0000 1.0000 -0.0000
vn 1.0000 -0.0000 0.0000
vn -0.0000 -0.0000 1.0000
vn -1.0000 0.0000 -0.0000
vn 0.0000 0.0000 -1.0000
vn 0.7071 0.7071 0.0000
usemtl Material
s off
f 2/1/1 4/2/1 1/3/1
f 5/4/2 7/5/2 6/6/2
f 5/7/3 10/8/3 9/9/3
f 6/10/4 11/11/4 10/12/4
f 7/13/5 12/14/5 11/15/5
f 9/16/6 4/2/6 12/17/6
f 9/16/6 8/18/6 5/19/6
f 3/20/5 12/14/5 4/21/5
f 10/12/4 3/22/4 2/23/4
f 9/24/7 2/25/7 1/26/7
f 2/1/1 3/27/1 4/2/1
f 5/4/2 8/28/2 7/5/2
f 5/7/3 6/29/3 10/8/3
f 6/10/4 7/30/4 11/11/4
f 7/13/5 8/31/5 12/14/5
f 9/16/6 1/3/6 4/2/6
f 9/16/6 12/17/6 8/18/6
f 3/20/5 11/15/5 12/14/5
f 10/12/4 11/11/4 3/22/4
f 9/24/7 10/32/7 2/25/7
