# Blender v2.77 (sub 0) OBJ File: 'lowerArm.blend'
# www.blender.org
mtllib lowerArm.mtl
o Cube
v 0.060000 0.000000 -0.060000
v 0.060000 0.000000 0.060000
v -0.060000 0.000000 0.060000
v -0.059999 0.000000 -0.060001
v 0.060001 0.480000 -0.059999
v 0.059999 0.480000 0.060001
v -0.060001 0.480000 0.059999
v -0.060000 0.480000 -0.060000
vt 0.2500 0.8000
vt 0.5000 1.0000
vt 0.2500 1.0000
vt 0.2500 1.0000
vt 0.0000 0.8000
vt 0.2500 0.8000
vt 1.0000 0.8000
vt 0.7500 0.0000
vt 1.0000 0.0000
vt 0.5000 0.0000
vt 0.7500 0.8000
vt 0.5000 0.8000
vt 0.2500 0.0000
vt 0.5000 0.8000
vt 0.2500 0.8000
vt 0.0000 0.0000
vt 0.2500 0.0000
vt 0.0000 1.0000
vt 0.7500 0.8000
vt 0.7500 0.0000
vt 0.5000 0.0000
vt 0.0000 0.8000
vn 0.0000 -1.0000 0.0000
vn 0.0000 1.0000 0.0000
vn 1.0000 -0.0000 0.0000
vn -0.0000 -0.0000 1.0000
vn -1.0000 -0.0000 -0.0000
vn 0.0000 0.0000 -1.0000
usemtl Material
s off
f 1/1/1 3/2/1 4/3/1
f 8/4/2 6/5/2 5/6/2
f 5/7/3 2/8/3 1/9/3
f 6/10/4 3/11/4 2/12/4
f 7/13/5 4/14/5 3/15/5
f 1/1/6 8/16/6 5/17/6
f 1/1/1 2/12/1 3/2/1
f 8/4/2 7/18/2 6/5/2
f 5/7/3 6/19/3 2/8/3
f 6/10/4 7/20/4 3/11/4
f 7/13/5 8/21/5 4/14/5
f 1/1/6 4/22/6 8/16/6
