# Blender v2.77 (sub 0) OBJ File: 'torso.blend'
# www.blender.org
mtllib torso.mtl
o Cube
v 0.075000 -0.000002 -0.330000
v 0.075000 -0.000002 0.330000
v -0.075000 -0.000002 0.330000
v -0.074999 -0.000002 -0.330001
v 0.075001 1.140000 -0.389999
v 0.074999 1.140000 0.390001
v -0.075001 1.140000 0.389999
v -0.075000 1.140000 -0.390001
v 0.075000 0.927795 -0.330000
v 0.075000 0.927795 0.330000
v -0.075000 0.927795 0.330000
v -0.074999 0.927795 -0.330001
vt 0.0000 0.9388
vt 0.0806 0.5945
vt 0.0806 0.9388
vt 0.9194 1.0000
vt 0.8387 0.5932
vt 0.9194 0.5932
vt 0.8387 0.1139
vt 0.9194 0.5932
vt 0.8387 0.5932
vt 1.0000 0.4793
vt 0.9194 0.0000
vt 1.0000 0.0000
vt 0.0806 0.9388
vt 0.1613 0.5945
vt 0.1613 0.9388
vt 0.3871 0.4839
vt 0.0323 0.0000
vt 0.3871 0.0000
vt 0.8065 0.4839
vt 0.4516 0.0000
vt 0.8065 0.0000
vt 0.9194 0.0000
vt 0.9194 0.1139
vt 0.9194 0.4793
vt 1.0000 0.5932
vt 0.9194 0.5932
vt 0.4194 0.5945
vt 0.0323 0.4839
vt 0.8387 0.5945
vt 0.4516 0.4839
vt 0.0000 0.5945
vt 0.8387 1.0000
vt 0.0806 0.5945
vt 0.8387 0.0000
vt 0.0000 0.5945
vt 0.4194 0.5945
vn 0.0000 -1.0000 -0.0000
vn 0.0000 1.0000 0.0000
vn 0.0000 0.0000 -1.0000
vn -0.0000 0.0000 1.0000
vn 1.0000 0.0000 0.0000
vn -1.0000 0.0000 -0.0000
vn 0.0000 -0.2721 -0.9623
vn -0.0000 -0.2721 0.9623
usemtl Material
s off
f 1/1/1 3/2/1 4/3/1
f 5/4/2 7/5/2 6/6/2
f 12/7/3 1/8/3 4/9/3
f 10/10/4 3/11/4 2/12/4
f 9/13/1 11/14/1 12/15/1
f 9/16/5 2/17/5 1/18/5
f 11/19/6 4/20/6 3/21/6
f 12/7/7 5/22/7 9/23/7
f 11/24/8 6/25/8 7/26/8
f 5/27/5 10/28/5 9/16/5
f 7/29/6 12/30/6 11/19/6
f 1/1/1 2/31/1 3/2/1
f 5/4/2 8/32/2 7/5/2
f 12/7/3 9/23/3 1/8/3
f 10/10/4 11/24/4 3/11/4
f 9/13/1 10/33/1 11/14/1
f 9/16/5 10/28/5 2/17/5
f 11/19/6 12/30/6 4/20/6
f 12/7/7 8/34/7 5/22/7
f 11/24/8 10/10/8 6/25/8
f 5/27/5 6/35/5 10/28/5
f 7/29/6 8/36/6 12/30/6
