# Blender v2.77 (sub 0) OBJ File: 'upperLeg.blend'
# www.blender.org
mtllib upperLeg.mtl
o Cube
v 0.090000 0.000000 -0.090000
v 0.090000 0.000000 0.090000
v -0.090000 0.000000 0.090000
v -0.089999 0.000000 -0.090001
v 0.090001 0.510000 -0.089999
v 0.089999 0.510000 0.090001
v -0.090001 0.510000 0.089999
v -0.090000 0.510000 -0.090000
vt 0.2500 0.7391
vt 0.5000 1.0000
vt 0.2500 1.0000
vt 0.2500 1.0000
vt 0.0000 0.7391
vt 0.2500 0.7391
vt 1.0000 0.7391
vt 0.7500 0.0000
vt 1.0000 0.0000
vt 0.2500 0.0000
vt 0.5000 0.7391
vt 0.2500 0.7391
vt 0.5000 0.0000
vt 0.7500 0.7391
vt 0.0000 0.0000
vt 0.2500 0.0000
vt 0.5000 0.7391
vt 0.0000 1.0000
vt 0.7500 0.7391
vt 0.7500 0.0000
vt 0.0000 0.7391
vn 0.0000 -1.0000 0.0000
vn 0.0000 1.0000 0.0000
vn 1.0000 -0.0000 0.0000
vn -0.0000 -0.0000 1.0000
vn -1.0000 -0.0000 -0.0000
vn 0.0000 0.0000 -1.0000
usemtl Material
s off
f 1/1/1 3/2/1 4/3/1
f 8/4/2 6/5/2 5/6/2
f 5/7/3 2/8/3 1/9/3
f 6/10/4 3/11/4 2/12/4
f 7/13/5 4/14/5 3/11/5
f 1/1/6 8/15/6 5/16/6
f 1/1/1 2/17/1 3/2/1
f 8/4/2 7/18/2 6/5/2
f 5/7/3 6/19/3 2/8/3
f 6/10/4 7/13/4 3/11/4
f 7/13/5 8/20/5 4/14/5
f 1/1/6 4/21/6 8/15/6
