# Blender v2.77 (sub 0) OBJ File: 'arch.blend'
# www.blender.org
mtllib arch.mtl
o Cube
v -0.977212 9.584252 -2.191596
v 0.977212 9.584252 -2.191596
v -0.977212 10.140965 0.000000
v 0.977212 10.140965 -0.000000
v -0.977212 7.995714 -4.000000
v -0.977212 7.263702 -5.562805
v 0.977212 7.263702 -5.562806
v 0.977212 7.995714 -4.000000
v -0.977212 0.000000 -3.999999
v -0.977212 0.000000 -5.562805
v 0.977212 0.000000 -5.562805
v 0.977212 0.000000 -4.000000
v -0.977212 10.600281 -2.963327
v 0.977212 10.600281 -2.963328
v -0.977212 11.379166 -1.105140
v 0.977212 11.379166 -1.105141
v -0.977212 9.233915 -4.698348
v 0.977212 9.233915 -4.698348
v -0.977212 9.584252 2.191596
v 0.977212 9.584252 2.191597
v -0.977212 7.995714 4.000000
v -0.977212 7.263702 5.562804
v 0.977212 7.263702 5.562806
v 0.977212 7.995714 4.000000
v -0.977212 0.000000 4.000000
v -0.977212 0.000000 5.562805
v 0.977212 0.000000 5.562805
v 0.977212 0.000000 4.000000
v -0.977212 10.600281 2.963328
v 0.977212 10.600281 2.963328
v -0.977212 11.379166 1.105140
v 0.977212 11.379166 1.105140
v -0.977212 9.233915 4.698347
v 0.977212 9.233915 4.698348
vt 0.2500 0.0625
vt 0.3125 0.0000
vt 0.2500 0.0000
vt 0.2500 0.0000
vt 0.3125 0.0625
vt 0.2500 0.0625
vt 0.3125 0.0625
vt 0.3125 0.0000
vt 0.2500 0.0625
vt 0.3125 0.0000
vt 0.2500 0.0000
vt 0.3125 0.0000
vt 0.2500 0.0000
vt 0.2500 0.0625
vt 0.3125 0.0000
vt 0.2500 0.0000
vt 0.3125 0.0625
vt 0.2500 0.0625
vt 0.3125 0.0000
vt 0.2500 0.0625
vt 0.2500 0.0000
vt 0.3125 0.0000
vt 0.2500 0.0000
vt 0.3125 0.0000
vt 0.2500 0.0000
vt 0.2500 0.0625
vt 0.3125 0.0000
vt 0.2500 0.0000
vt 0.2500 0.0000
vt 0.3125 0.0625
vt 0.2500 0.0625
vt 0.2500 0.0625
vt 0.3125 0.0000
vt 0.3125 0.0000
vt 0.2500 0.0625
vt 0.2500 0.0000
vt 0.2500 0.0000
vt 0.3125 0.0000
vt 0.2500 0.0000
vt 0.3125 0.0625
vt 0.3125 0.0625
vt 0.2500 0.0625
vt 0.2500 0.0625
vt 0.3125 0.0000
vt 0.2500 0.0625
vt 0.2500 0.0000
vt 0.2500 0.0000
vt 0.3125 0.0625
vt 0.3125 0.0000
vt 0.3125 0.0625
vt 0.2500 0.0625
vt 0.3125 0.0000
vt 0.2500 0.0625
vt 0.2500 0.0000
vt 0.3125 0.0000
vt 0.2500 0.0000
vt 0.3125 0.0000
vt 0.2500 0.0625
vt 0.2500 0.0000
vt 0.3125 0.0625
vt 0.3125 0.0000
vt 0.2500 0.0625
vt 0.3125 0.0000
vt 0.2500 0.0625
vt 0.3125 0.0000
vt 0.2500 0.0000
vt 0.3125 0.0000
vt 0.2500 0.0000
vt 0.2500 0.0625
vt 0.2500 0.0000
vt 0.3125 0.0625
vt 0.3125 0.0000
vt 0.2500 0.0625
vt 0.2500 0.0625
vt 0.3125 0.0000
vt 0.2500 0.0000
vt 0.2500 0.0000
vt 0.3125 0.0000
vt 0.2500 0.0000
vt 0.3125 0.0625
vt 0.3125 0.0000
vt 0.2500 0.0000
vt 0.3125 0.0000
vt 0.3125 0.0625
vt 0.2500 0.0000
vt 0.3125 0.0625
vt 0.2500 0.0625
vt 0.3125 0.0625
vt 0.3125 0.0625
vt 0.3125 0.0625
vt 0.3125 0.0625
vt 0.3125 0.0625
vt 0.3125 0.0625
vt 0.2500 0.0625
vt 0.3125 0.0625
vt 0.3125 0.0625
vt 0.3125 0.0625
vt 0.3125 0.0625
vt 0.2500 0.0625
vt 0.3125 0.0625
vt 0.2500 0.0625
vn 0.0000 -1.0000 0.0000
vn 0.0000 -0.9056 0.4242
vn 1.0000 0.0000 0.0000
vn 0.0000 -0.0000 -1.0000
vn -1.0000 0.0000 0.0000
vn 0.0000 0.0000 1.0000
vn 0.0000 0.7856 -0.6187
vn -0.0000 0.9223 -0.3866
vn -0.0000 -0.6659 -0.7461
vn 0.0000 0.4913 0.8710
vn -0.0000 0.4018 -0.9157
vn 0.0000 -0.9692 0.2462
vn 0.0000 -0.7513 0.6600
vn 0.0000 -0.9056 -0.4242
vn -0.0000 0.7856 0.6187
vn 0.0000 0.9223 0.3866
vn -0.0000 0.6659 -0.7461
vn 0.0000 0.4913 -0.8710
vn -0.0000 0.4018 0.9157
vn 0.0000 -0.9692 -0.2462
vn 0.0000 -0.7513 -0.6600
vn 0.0000 1.0000 0.0000
usemtl Material
s off
f 9/1/1 11/2/1 12/3/1
f 8/4/2 6/5/2 7/6/2
f 12/3/3 7/7/3 8/8/3
f 10/9/4 7/10/4 11/11/4
f 9/1/5 6/12/5 10/13/5
f 5/14/6 12/15/6 8/4/6
f 2/16/3 18/17/3 14/18/3
f 2/19/3 16/20/3 4/21/3
f 17/22/7 14/18/7 18/23/7
f 13/24/8 16/20/8 14/25/8
f 15/26/9 4/27/9 3/28/9
f 1/29/5 15/30/5 13/31/5
f 18/32/10 5/33/10 8/4/10
f 1/34/5 17/35/5 5/36/5
f 18/32/11 6/12/11 17/37/11
f 8/4/3 7/7/3 18/38/3
f 6/39/5 5/40/5 17/22/5
f 1/29/12 4/41/12 3/42/12
f 2/16/13 5/40/13 8/43/13
f 27/44/1 25/45/1 28/46/1
f 24/47/14 22/48/14 21/49/14
f 28/46/3 23/50/3 27/51/3
f 23/52/6 26/53/6 27/54/6
f 22/55/5 25/45/5 26/56/5
f 28/57/4 21/58/4 24/47/4
f 20/59/3 34/60/3 24/61/3
f 32/62/3 20/63/3 4/21/3
f 30/64/15 33/65/15 34/66/15
f 32/62/16 29/67/16 30/68/16
f 31/69/17 4/27/17 3/28/17
f 19/70/5 31/71/5 3/72/5
f 21/49/18 34/73/18 24/47/18
f 33/74/5 19/75/5 21/76/5
f 22/55/19 34/73/19 33/77/19
f 24/47/3 34/78/3 23/50/3
f 22/79/5 33/65/5 21/80/5
f 3/42/20 20/63/20 19/70/20
f 20/59/21 21/80/21 19/75/21
f 32/81/22 15/26/22 31/82/22
f 31/82/5 15/83/5 3/84/5
f 16/85/3 32/81/3 4/41/3
f 9/1/1 10/86/1 11/2/1
f 8/4/2 5/33/2 6/5/2
f 12/3/3 11/87/3 7/7/3
f 10/9/4 6/5/4 7/10/4
f 9/1/5 5/40/5 6/12/5
f 5/14/6 9/88/6 12/15/6
f 2/16/3 8/8/3 18/17/3
f 2/19/3 14/89/3 16/20/3
f 17/22/7 13/90/7 14/18/7
f 13/24/8 15/30/8 16/20/8
f 15/26/9 16/91/9 4/27/9
f 1/29/5 3/72/5 15/30/5
f 18/32/10 17/92/10 5/33/10
f 1/34/5 13/90/5 17/35/5
f 18/32/11 7/7/11 6/12/11
f 1/29/12 2/19/12 4/41/12
f 2/16/13 1/34/13 5/40/13
f 27/44/1 26/93/1 25/45/1
f 24/47/14 23/94/14 22/48/14
f 28/46/3 24/61/3 23/50/3
f 23/52/6 22/48/6 26/53/6
f 22/55/5 21/80/5 25/45/5
f 28/57/4 25/95/4 21/58/4
f 20/59/3 30/64/3 34/60/3
f 32/62/3 30/96/3 20/63/3
f 30/64/15 29/97/15 33/65/15
f 32/62/16 31/71/16 29/67/16
f 31/69/17 32/98/17 4/27/17
f 19/70/5 29/99/5 31/71/5
f 21/49/18 33/100/18 34/73/18
f 33/74/5 29/97/5 19/75/5
f 22/55/19 23/50/19 34/73/19
f 3/42/20 4/41/20 20/63/20
f 20/59/21 24/101/21 21/80/21
f 32/81/22 16/91/22 15/26/22
