# Blender v2.77 (sub 0) OBJ File: 'arch.blend'
# www.blender.org
mtllib arch.mtl
o Cube
v -0.977212 9.584252 -2.191596
v 0.977212 9.584252 -2.191596
v -0.977212 10.140965 0.000000
v 0.977212 10.140965 -0.000000
v -0.977212 7.995714 -4.000000
v -0.977212 7.263702 -5.562805
v 0.977212 7.263702 -5.562806
v 0.977212 7.995714 -4.000000
v -0.977212 0.000000 -3.999999
v -0.977212 0.000000 -5.562805
v 0.977212 0.000000 -5.562805
v 0.977212 0.000000 -4.000000
v -0.977212 10.600281 -2.963327
v 0.977212 10.600281 -2.963328
v -0.977212 11.379166 -1.105140
v 0.977212 11.379166 -1.105141
v -0.977212 9.233915 -4.698348
v 0.977212 9.233915 -4.698348
v -0.977212 9.584252 2.191596
v 0.977212 9.584252 2.191597
v -0.977212 7.995714 4.000000
v -0.977212 7.263702 5.562804
v 0.977212 7.263702 5.562806
v 0.977212 7.995714 4.000000
v -0.977212 0.000000 4.000000
v -0.977212 0.000000 5.562805
v 0.977212 0.000000 5.562805
v 0.977212 0.000000 4.000000
v -0.977212 10.600281 2.963328
v 0.977212 10.600281 2.963328
v -0.977212 11.379166 1.105140
v 0.977212 11.379166 1.105140
v -0.977212 9.233915 4.698347
v 0.977212 9.233915 4.698348
vt 0.0114 0.5000
vt 0.9886 1.2814
vt 0.9886 0.5000
vt 0.5000 0.5000
vt 1.2814 4.1319
vt 0.5000 4.4979
vt 0.0114 0.5000
vt 0.9886 4.1319
vt 0.9886 0.5000
vt -0.5000 0.5000
vt 0.2814 4.1319
vt 0.2814 0.5000
vt 0.0114 0.4979
vt 0.9886 -3.5000
vt 0.9886 0.4979
vt 0.5958 0.2921
vt 1.8492 0.1170
vt 0.9817 0.8001
vt 1.5958 0.2921
vt 1.0526 1.1896
vt 0.5000 0.5705
vt 0.0114 0.8492
vt 0.9886 -0.0183
vt 0.9886 0.8492
vt 0.0114 0.9817
vt 0.9886 0.0526
vt 0.9886 0.9817
vt 0.5958 0.2921
vt 0.0526 1.1896
vt 0.9817 0.8001
vt -0.4042 1.2921
vt 0.8492 1.1170
vt 0.5000 0.4979
vt 0.9886 0.1170
vt 0.0114 -0.8681
vt 0.0114 0.1170
vt 0.5000 0.4979
vt 1.2814 0.1319
vt 0.8492 1.1170
vt 0.2814 0.1319
vt -0.5000 0.4979
vt -0.1508 1.1170
vt 0.0114 0.5958
vt 0.9886 -0.5000
vt 0.0114 -0.5000
vt 0.9886 0.5958
vt 0.0114 1.5000
vt 0.9886 1.5000
vt 0.9886 -0.2814
vt 0.0114 0.5000
vt 0.9886 0.5000
vt 0.5000 0.5000
vt -0.2814 4.1319
vt -0.2814 0.5000
vt 0.9886 4.1319
vt 0.0114 0.5000
vt 0.9886 0.5000
vt 0.7186 4.1319
vt 1.5000 0.5000
vt 0.7186 0.5000
vt 0.9886 -3.5000
vt 0.0114 0.4979
vt 0.9886 0.4979
vt 0.4042 0.2921
vt -0.8492 0.1170
vt -0.5000 -0.5021
vt -0.0526 1.1896
vt -0.5958 0.2921
vt 0.9886 1.0183
vt 0.0114 0.1508
vt 0.9886 0.1508
vt 0.9886 0.9474
vt 0.0114 0.0183
vt 0.9886 0.0183
vt 0.4042 0.2921
vt 0.9474 1.1896
vt 1.5000 0.5705
vt 0.1508 1.1170
vt 1.4042 1.2921
vt 0.5000 0.4979
vt 0.0114 -0.8681
vt 0.9886 0.1170
vt 0.0114 0.1170
vt 0.5000 0.4979
vt 0.1508 1.1170
vt -0.2814 0.1319
vt 0.7186 0.1319
vt 1.1508 1.1170
vt 1.5000 0.4979
vt 0.0114 1.5000
vt 0.9886 0.4042
vt 0.0114 0.4042
vt 0.0114 -0.5000
vt 0.0114 2.0526
vt 0.0114 0.9474
vt 0.9474 0.1896
vt 2.0526 0.1896
vt 1.5000 -0.4295
vt 0.0526 0.1896
vt -1.0526 0.1896
vt -0.5000 -0.4295
vt 0.0114 1.2814
vt 1.2814 0.5000
vt 0.0114 4.1319
vt -0.5000 4.4979
vt 0.0114 -3.5000
vt 1.5000 -0.5021
vt 1.9817 0.8001
vt 0.0114 -0.0183
vt 0.0114 0.0526
vt -0.5000 0.5705
vt -0.0183 1.8001
vt 0.9886 -0.8681
vt 0.0114 -0.2814
vt 0.5000 4.4979
vt 0.0114 4.1319
vt 1.5000 4.4979
vt 0.0114 -3.5000
vt 0.0183 0.8001
vt -0.9817 0.8001
vt 0.0114 1.0183
vt 0.0183 0.8001
vt 1.0183 1.8001
vt 0.9886 -0.8681
vt 0.9886 1.5000
vt 0.9886 -0.5000
vt 0.9886 2.0526
vn 0.0000 -1.0000 0.0000
vn 1.0000 0.0000 0.0000
vn 0.0000 -0.0000 -1.0000
vn -1.0000 0.0000 0.0000
vn 0.0000 0.0000 1.0000
vn 0.0000 0.7856 -0.6187
vn -0.0000 0.9223 -0.3866
vn -0.0000 0.4018 -0.9157
vn 0.0000 -0.9692 0.2462
vn 0.0000 -0.7513 0.6600
vn -0.0000 0.7856 0.6187
vn 0.0000 0.9223 0.3866
vn -0.0000 0.4018 0.9157
vn 0.0000 -0.9692 -0.2462
vn 0.0000 -0.7513 -0.6600
vn 0.0000 1.0000 0.0000
usemtl Material
s off
f 9/1/1 11/2/1 12/3/1
f 12/4/2 7/5/2 8/6/2
f 10/7/3 7/8/3 11/9/3
f 9/10/4 6/11/4 10/12/4
f 5/13/5 12/14/5 8/15/5
f 2/16/2 18/17/2 14/18/2
f 2/19/2 16/20/2 4/21/2
f 17/22/6 14/23/6 18/24/6
f 13/25/7 16/26/7 14/27/7
f 1/28/4 15/29/4 13/30/4
f 1/31/4 17/32/4 5/33/4
f 18/34/8 6/35/8 17/36/8
f 8/37/2 7/38/2 18/39/2
f 6/40/4 5/41/4 17/42/4
f 1/43/9 4/44/9 3/45/9
f 2/46/10 5/47/10 8/48/10
f 27/49/1 25/50/1 28/51/1
f 28/52/2 23/53/2 27/54/2
f 23/55/5 26/56/5 27/57/5
f 22/58/4 25/59/4 26/60/4
f 28/61/3 21/62/3 24/63/3
f 20/64/2 34/65/2 24/66/2
f 32/67/2 20/68/2 4/21/2
f 30/69/11 33/70/11 34/71/11
f 32/72/12 29/73/12 30/74/12
f 19/75/4 31/76/4 3/77/4
f 33/78/4 19/79/4 21/80/4
f 22/81/13 34/82/13 33/83/13
f 24/84/2 34/85/2 23/86/2
f 22/87/4 33/88/4 21/89/4
f 3/90/14 20/91/14 19/92/14
f 20/91/15 21/93/15 19/92/15
f 32/72/16 15/94/16 31/95/16
f 31/96/4 15/97/4 3/98/4
f 16/99/2 32/100/2 4/101/2
f 9/1/1 10/102/1 11/2/1
f 12/4/2 11/103/2 7/5/2
f 10/7/3 6/104/3 7/8/3
f 9/10/4 5/105/4 6/11/4
f 5/13/5 9/106/5 12/14/5
f 2/16/2 8/107/2 18/17/2
f 2/19/2 14/108/2 16/20/2
f 17/22/6 13/109/6 14/23/6
f 13/25/7 15/110/7 16/26/7
f 1/28/4 3/111/4 15/29/4
f 1/31/4 13/112/4 17/32/4
f 18/34/8 7/113/8 6/35/8
f 1/43/9 2/46/9 4/44/9
f 2/46/10 1/43/10 5/47/10
f 27/49/1 26/114/1 25/50/1
f 28/52/2 24/115/2 23/53/2
f 23/55/5 22/116/5 26/56/5
f 22/58/4 21/117/4 25/59/4
f 28/61/3 25/118/3 21/62/3
f 20/64/2 30/119/2 34/65/2
f 32/67/2 30/120/2 20/68/2
f 30/69/11 29/121/11 33/70/11
f 32/72/12 31/95/12 29/73/12
f 19/75/4 29/122/4 31/76/4
f 33/78/4 29/123/4 19/79/4
f 22/81/13 23/124/13 34/82/13
f 3/90/14 4/125/14 20/91/14
f 20/91/15 24/126/15 21/93/15
f 32/72/16 16/127/16 15/94/16
