# Blender v2.77 (sub 0) OBJ File: 'cabin.blend'
# www.blender.org
mtllib cabin.mtl
o Cube
v -10.000000 1.000000 10.000000
v -10.000000 1.000000 -2.000000
v 10.000000 1.000000 10.000000
v 10.000000 1.000000 -2.000000
v 11.000000 0.000000 -3.000000
v 11.000000 0.000000 11.000000
v -11.000000 0.000000 11.000000
v -11.000000 0.000000 -3.000000
v -2.500000 9.000000 -3.000000
v -7.500000 1.000000 -3.000000
v -7.500000 9.000000 -3.000000
v -2.500000 9.000000 -2.000000
v -7.500000 9.000000 -2.000000
v -2.500000 1.000000 -2.000000
v -7.500000 1.000000 -2.000000
v 10.000000 10.000000 -2.000000
v -10.000000 10.000000 10.000000
v -10.000000 10.000000 -2.000000
v 10.000000 10.000000 10.000000
v 11.000000 10.000000 11.000000
v -11.000000 10.000000 -3.000000
v 11.000000 10.000000 -3.000000
v -11.000000 10.000000 11.000000
v -1.500000 0.000000 -3.000000
v -8.500000 0.000000 -3.000000
v -1.500000 0.000000 -5.000000
v -8.500000 0.000000 -5.000000
v -1.500000 1.000000 -3.000000
v -2.500000 1.000000 -3.000000
v -1.500000 1.000000 -3.500000
v -8.500000 1.000000 -3.500000
v -1.500000 0.750000 -4.000000
v -8.500000 0.750000 -4.000000
v -1.500000 0.750000 -3.500000
v -8.500000 0.750000 -3.500000
v -1.500000 0.500000 -4.000000
v -8.500000 0.500000 -4.000000
v -1.500000 0.500000 -4.500000
v -8.500000 0.500000 -4.500000
v -1.500000 0.250000 -5.000000
v -8.500000 0.250000 -5.000000
v -8.500000 0.250000 -4.500000
v -1.500000 0.250000 -4.500000
v -8.500000 1.000000 -3.000000
vt 1.0625 1.0000
vt 0.3125 1.0625
vt 0.4375 1.0000
vt 0.1250 1.8750
vt 2.6250 0.7500
vt 0.1250 0.7500
vt -1.7500 0.8750
vt 0.0000 -0.3750
vt 0.0000 0.8750
vt 0.0000 2.1250
vt 1.7500 0.8750
vt 0.0000 0.8750
vt -0.1250 0.7500
vt 0.0000 -0.2500
vt 0.0000 0.7500
vt 0.0000 -0.2500
vt -0.1250 0.7500
vt 0.0000 0.7500
vt 0.0000 2.1250
vt 1.0625 2.0000
vt 0.4375 2.0000
vt 0.0000 2.1250
vt -2.7500 0.8750
vt 0.0000 0.8750
vt 0.8125 0.7500
vt 0.1875 0.6250
vt 0.1875 0.7500
vt 0.1250 0.9375
vt 0.1875 0.9062
vt 0.0000 0.8750
vt -0.6875 0.8750
vt 0.1875 0.9062
vt 0.1875 0.8750
vt 0.0625 0.9375
vt 0.9375 0.9062
vt 0.0625 0.9062
vt -0.6875 0.8750
vt 0.1875 0.8125
vt 0.1875 0.8750
vt -0.6875 0.9375
vt 0.1875 0.8750
vt 0.1875 0.9375
vt 0.0625 1.0000
vt 0.9375 0.9688
vt 0.0625 0.9688
vt -0.6875 0.7500
vt 0.1875 0.6875
vt 0.1875 0.7500
vt 0.0625 0.9688
vt 0.9375 0.9375
vt 0.0625 0.9375
vt 0.0000 0.8750
vt 0.1250 0.9375
vt 0.0625 0.9688
vt 2.7500 0.7500
vt 0.1250 0.8750
vt 0.0000 0.7500
vt 0.1250 1.8750
vt -1.3750 0.7500
vt 0.1250 0.7500
vt 2.6250 0.8750
vt 0.0000 1.0000
vt 0.1250 0.8750
vt 0.8125 1.7500
vt 2.3750 1.8750
vt -0.1250 1.8750
vt 0.1250 1.8750
vt 1.6250 0.7500
vt 0.1250 0.7500
vt 0.3125 2.5000
vt 1.1875 2.5000
vt 0.0000 0.7500
vt 0.1250 2.3750
vt 0.1250 -0.6250
vt 0.2500 1.0000
vt 0.1250 0.8750
vt 0.4375 0.8750
vt 0.1250 0.8750
vt 0.1250 -0.6250
vt 2.6250 -0.6250
vt 1.0625 0.8750
vt 2.6250 0.8750
vt 1.1875 1.0000
vt 1.1875 1.0625
vt 0.3125 1.0000
vt 2.6250 1.8750
vt -1.7500 -0.3750
vt 1.7500 2.1250
vt -0.1250 -0.2500
vt -0.1250 -0.2500
vt 0.3125 0.8750
vt 0.0000 0.8750
vt 2.7500 2.1250
vt 2.7500 0.8750
vt 1.1875 0.8750
vt -2.7500 2.1250
vt 0.8125 0.6250
vt 0.1875 0.9375
vt 0.2500 0.9062
vt 0.2500 0.8750
vt 0.0000 1.0000
vt 0.1250 0.9688
vt -0.6875 0.9062
vt 0.9375 0.9375
vt -0.6875 0.8125
vt -0.6875 0.8750
vt 0.9375 1.0000
vt -0.6875 0.6875
vt 0.9375 0.9688
vt 0.2500 0.8750
vt 0.1875 0.9062
vt 0.2500 0.9062
vt 0.0625 1.0000
vt 0.0000 1.0000
vt 0.1250 0.9688
vt 2.6250 0.8750
vt -1.3750 1.8750
vt 2.7500 1.0000
vt -0.1250 0.7500
vt 0.1875 0.7500
vt 0.1875 1.7500
vt 0.8125 0.7500
vt 2.3750 0.7500
vt 1.6250 1.8750
vt 2.7500 0.7500
vt 0.3125 2.7500
vt 1.1875 2.7500
vt 0.0000 2.5000
vt 2.7500 2.5000
vt 0.0000 2.5000
vt 0.2500 -0.7500
vn 0.0000 1.0000 0.0000
vn 0.0000 0.0000 -1.0000
vn 1.0000 0.0000 0.0000
vn -1.0000 0.0000 0.0000
vn 0.0000 0.0000 1.0000
vn 0.0000 -1.0000 0.0000
usemtl Material
s off
f 29/1/1 31/2/1 10/3/1
f 17/4/2 3/5/2 1/6/2
f 20/7/3 5/8/3 22/9/3
f 23/10/4 8/11/4 7/12/4
f 13/13/3 10/14/3 11/15/3
f 29/16/4 12/17/4 9/18/4
f 21/19/2 9/20/2 11/21/2
f 20/22/5 7/23/5 6/24/5
f 9/25/6 13/26/6 11/27/6
f 37/28/4 42/29/4 25/30/4
f 27/31/2 40/32/2 26/33/2
f 39/34/2 43/35/2 42/36/2
f 33/37/1 34/38/1 32/39/1
f 39/40/1 36/41/1 38/42/1
f 31/43/2 34/44/2 35/45/2
f 41/46/1 43/47/1 40/48/1
f 33/49/2 36/50/2 37/51/2
f 24/52/3 36/53/3 34/54/3
f 20/55/1 17/56/1 23/57/1
f 18/58/3 1/59/3 2/60/3
f 16/61/1 21/62/1 18/63/1
f 12/64/5 16/65/5 18/66/5
f 19/67/4 4/68/4 3/69/4
f 25/70/6 24/71/6 7/72/6
f 18/73/1 23/57/1 17/56/1
f 19/74/1 22/75/1 16/76/1
f 15/77/1 2/78/1 1/79/1
f 1/79/1 3/80/1 14/81/1
f 3/80/1 4/82/1 14/81/1
f 15/77/1 1/79/1 14/81/1
f 29/1/1 28/83/1 30/84/1
f 15/77/1 14/81/1 29/1/1
f 31/2/1 44/85/1 10/3/1
f 10/3/1 15/77/1 29/1/1
f 29/1/1 30/84/1 31/2/1
f 17/4/2 19/86/2 3/5/2
f 20/7/3 6/87/3 5/8/3
f 23/10/4 21/88/4 8/11/4
f 13/13/3 15/89/3 10/14/3
f 29/16/4 14/90/4 12/17/4
f 25/91/2 8/92/2 44/85/2
f 22/93/2 5/94/2 28/83/2
f 28/83/2 29/1/2 9/20/2
f 5/94/2 24/95/2 28/83/2
f 44/85/2 8/92/2 21/19/2
f 11/21/2 10/3/2 44/85/2
f 22/93/2 28/83/2 9/20/2
f 11/21/2 44/85/2 21/19/2
f 22/93/2 9/20/2 21/19/2
f 20/22/5 23/96/5 7/23/5
f 9/25/6 12/97/6 13/26/6
f 37/28/4 39/98/4 42/29/4
f 42/29/4 41/99/4 27/100/4
f 25/30/4 44/101/4 35/45/4
f 35/45/4 33/102/4 37/28/4
f 44/101/4 31/43/4 35/45/4
f 42/29/4 27/100/4 25/30/4
f 25/30/4 35/45/4 37/28/4
f 27/31/2 41/103/2 40/32/2
f 39/34/2 38/104/2 43/35/2
f 33/37/1 35/105/1 34/38/1
f 39/40/1 37/106/1 36/41/1
f 31/43/2 30/107/2 34/44/2
f 41/46/1 42/108/1 43/47/1
f 33/49/2 32/109/2 36/50/2
f 24/52/3 26/110/3 43/111/3
f 43/111/3 38/42/3 36/53/3
f 26/110/3 40/112/3 43/111/3
f 30/113/3 28/114/3 34/54/3
f 36/53/3 32/115/3 34/54/3
f 34/54/3 28/114/3 24/52/3
f 24/52/3 43/111/3 36/53/3
f 20/55/1 19/116/1 17/56/1
f 18/58/3 17/117/3 1/59/3
f 16/61/1 22/118/1 21/62/1
f 2/119/5 15/120/5 13/121/5
f 12/64/5 14/122/5 4/123/5
f 18/66/5 2/119/5 13/121/5
f 12/64/5 4/123/5 16/65/5
f 18/66/5 13/121/5 12/64/5
f 19/67/4 16/124/4 4/68/4
f 6/125/6 7/72/6 24/71/6
f 25/70/6 27/126/6 26/127/6
f 7/72/6 8/128/6 25/70/6
f 24/71/6 5/129/6 6/125/6
f 25/70/6 26/127/6 24/71/6
f 18/73/1 21/130/1 23/57/1
f 19/74/1 20/131/1 22/75/1
