# Blender v2.77 (sub 0) OBJ File: 'cabin.blend'
# www.blender.org
mtllib cabin.mtl
o Cube
v -10.000000 1.000000 10.000000
v -10.000000 1.000000 -2.000000
v 10.000000 1.000000 10.000000
v 10.000000 1.000000 -2.000000
v 11.000000 1.000000 -2.000000
v 11.000000 0.000000 -2.000000
v -10.000000 1.000000 -3.000000
v -10.000000 0.000000 -3.000000
v -11.000000 0.000000 10.000000
v -11.000000 1.000000 -2.000000
v -11.000000 0.000000 -2.000000
v -10.000000 0.000000 11.000000
v -10.000000 1.000000 11.000000
v 10.000000 1.000000 11.000000
v 10.000000 0.000000 11.000000
v 10.000000 1.000000 -3.000000
v 10.000000 0.000000 -3.000000
v 11.000000 1.000000 -3.000000
v 11.000000 0.000000 -3.000000
v 11.000000 1.000000 10.000000
v 11.000000 0.000000 10.000000
v 11.000000 1.000000 11.000000
v 11.000000 0.000000 11.000000
v -11.000000 1.000000 10.000000
v -11.000000 0.000000 11.000000
v -11.000000 1.000000 11.000000
v -11.000000 1.000000 -3.000000
v -11.000000 0.000000 -3.000000
v 10.000000 9.000000 -2.000000
v -10.000000 9.000000 -3.000000
v 10.000000 9.000000 -3.000000
v -10.000000 9.000000 11.000000
v -10.000000 9.000000 10.000000
v -10.000000 9.000000 -2.000000
v 11.000000 9.000000 -2.000000
v 11.000000 9.000000 10.000000
v -11.000000 9.000000 10.000000
v -11.000000 9.000000 -2.000000
v 10.000000 9.000000 11.000000
v 10.000000 9.000000 10.000000
v 11.000000 9.000000 -3.000000
v 11.000000 9.000000 11.000000
v -11.000000 9.000000 11.000000
v -11.000000 9.000000 -3.000000
v -2.500000 9.000000 -3.000000
v -7.500000 1.000000 -3.000000
v -7.500000 9.000000 -3.000000
v -2.500000 9.000000 -2.000000
v -7.500000 9.000000 -2.000000
v -2.500000 1.000000 -2.000000
v -7.500000 1.000000 -2.000000
v 10.000000 10.000000 -3.000000
v 10.000000 10.000000 -2.000000
v -10.000000 10.000000 10.000000
v -10.000000 10.000000 -2.000000
v -11.000000 10.000000 10.000000
v 11.000000 10.000000 -2.000000
v 11.000000 10.000000 10.000000
v 10.000000 10.000000 11.000000
v 10.000000 10.000000 10.000000
v 11.000000 10.000000 11.000000
v -11.000000 10.000000 -3.000000
v -11.000000 10.000000 -2.000000
v -2.500000 10.000000 -3.000000
v -7.500000 10.000000 -3.000000
v -10.000000 10.000000 -3.000000
v -2.500000 10.000000 -2.000000
v -7.500000 10.000000 -2.000000
v -10.000000 10.000000 11.000000
v 11.000000 10.000000 -3.000000
v -11.000000 10.000000 11.000000
v -1.500000 9.000000 -3.000000
v -1.500000 9.000000 -2.000000
v -1.500000 1.000000 -2.000000
v -1.500000 10.000000 -3.000000
v -1.500000 10.000000 -2.000000
v -1.500000 0.000000 -3.000000
v -8.500000 1.000000 -3.000000
v -8.500000 0.000000 -3.000000
v -1.500000 0.000000 -5.000000
v -8.500000 0.000000 -4.500000
v -1.500000 0.000000 -3.500000
v -8.500000 0.000000 -5.000000
v -1.500000 0.000000 -4.000000
v -8.500000 0.000000 -3.500000
v -1.500000 0.000000 -4.500000
v -8.500000 0.000000 -4.000000
v -1.500000 1.000000 -3.000000
v -2.500000 1.000000 -3.000000
v -1.500000 1.000000 -3.500000
v -8.500000 1.000000 -3.500000
v -1.500000 0.750000 -4.000000
v -8.500000 0.750000 -4.000000
v -1.500000 0.750000 -3.500000
v -8.500000 0.750000 -3.500000
v -1.500000 0.500000 -4.000000
v -8.500000 0.500000 -4.000000
v -1.500000 0.500000 -4.500000
v -8.500000 0.500000 -4.500000
v -1.500000 0.250000 -5.000000
v -8.500000 0.250000 -5.000000
v -8.500000 0.250000 -4.500000
v -1.500000 0.250000 -4.500000
v 10.000000 1.000000 -2.900000
v 10.000000 9.000000 -2.900000
v -1.500000 9.000000 -2.900000
v -1.500000 1.000000 -2.900000
v -10.900000 1.000000 10.000000
v -10.900000 1.000000 -2.000000
v -10.900000 9.000000 10.000000
v -10.900000 9.000000 -2.000000
v 10.000000 1.000000 10.900000
v -10.000000 1.000000 10.900000
v -10.000000 9.000000 10.900000
v 10.000000 9.000000 10.900000
v 10.900000 1.000000 -2.000000
v 10.900000 1.000000 10.000000
v 10.900000 9.000000 -2.000000
v 10.900000 9.000000 10.000000
v -8.500000 9.000000 -3.000000
v -10.000000 9.000000 -2.900000
v -10.000000 1.000000 -2.900000
v -8.500000 1.000000 -2.900000
v -8.500000 9.000000 -2.900000
vt -2.0000 0.3750
vt 0.5000 1.3750
vt 0.5000 0.3750
vt 0.5000 2.0000
vt -2.0000 0.5000
vt 0.5000 0.5000
vt -1.0000 0.3750
vt 0.5000 0.2500
vt 0.5000 0.3750
vt 2.0000 0.3750
vt 0.5000 1.3750
vt 0.5000 0.3750
vt 0.6250 0.3750
vt 2.0000 0.3750
vt 0.5000 0.2500
vt 0.5000 0.3750
vt -2.0000 0.3750
vt 0.5000 0.2500
vt 0.5000 0.3750
vt 0.5000 0.6250
vt 0.6250 0.5000
vt 0.5000 0.5000
vt 0.2500 0.3750
vt 0.3750 1.3750
vt 0.3750 0.3750
vt 0.5000 0.6250
vt 0.3750 0.5000
vt 0.5000 0.5000
vt 0.3750 0.3750
vt 0.5000 1.3750
vt 0.6250 0.3750
vt 0.5000 0.6250
vt 0.3750 0.5000
vt 0.5000 0.5000
vt 0.5000 0.6250
vt 0.6250 0.5000
vt 0.5000 0.5000
vt 0.5000 0.2500
vt 0.5000 0.3750
vt 0.5000 1.3750
vt 0.6250 0.3750
vt 0.5000 0.5000
vt 0.5000 0.3750
vt -0.9375 0.5000
vt 0.5000 0.3750
vt 0.5000 0.5000
vt 0.2500 0.3750
vt 0.5625 -0.6250
vt 0.5625 0.3750
vt 3.0000 0.3750
vt 0.5000 0.5000
vt 0.5000 0.3750
vt 0.3750 1.3750
vt 0.3875 0.3750
vt 0.3750 0.3750
vt 0.2500 0.3750
vt 0.5625 0.5000
vt 0.5625 0.3750
vt 0.2500 0.3750
vt 0.3750 0.5000
vt 0.3750 0.3750
vt 0.3750 -0.6250
vt 0.3625 0.3750
vt 0.3750 0.3750
vt -1.0000 0.3750
vt 0.5000 1.3750
vt 0.5000 0.3750
vt 0.3750 1.3750
vt 0.3875 0.3750
vt 0.3750 0.3750
vt 0.4375 0.5000
vt -0.1875 0.3750
vt 0.4375 0.3750
vt 0.5625 -0.6250
vt 2.0000 0.3750
vt 0.5625 0.3750
vt -2.0000 0.3750
vt 0.5000 0.5000
vt 0.5000 0.3750
vt 2.0000 0.3750
vt 0.5000 0.5000
vt 0.5000 0.3750
vt 0.5000 0.3750
vt 0.3750 1.3750
vt 0.3750 0.3750
vt 0.2500 0.3750
vt 0.3750 1.3750
vt 0.3750 0.3750
vt 0.5000 1.3750
vt 0.5000 0.3750
vt 0.3750 1.3750
vt -1.0000 0.3750
vt 0.5000 0.5000
vt 0.5000 0.3750
vt 0.8125 0.3750
vt 0.5000 0.5000
vt 0.5000 0.3750
vt 0.5000 1.3750
vt 2.0000 0.3750
vt 0.5625 0.3625
vt 0.5625 0.3750
vt 0.4375 -0.6250
vt 0.4375 0.3750
vt -0.1875 0.3750
vt 0.4375 0.2500
vt 0.4375 0.3750
vt 0.2500 0.3750
vt 0.3750 -0.6250
vt 0.3750 0.3750
vt 0.3750 -0.6250
vt 0.2500 0.3750
vt 0.3750 0.3750
vt 0.5000 0.2500
vt 0.8125 0.3750
vt 0.5000 0.3750
vt -2.0000 0.5000
vt 0.5000 0.3750
vt 0.5000 2.0000
vt 0.3750 0.5000
vt 0.5000 -1.0000
vt 0.6250 0.5000
vt 0.5000 0.6250
vt 0.6250 0.5000
vt 0.3750 0.3750
vt 0.5000 0.3750
vt 0.5000 0.6250
vt 0.3750 0.5000
vt -0.9375 0.3750
vt 0.5000 0.5000
vt 0.5000 0.3750
vt 1.1875 0.5000
vt 0.5625 0.6250
vt 0.5625 0.5000
vt 0.6250 0.3750
vt 0.5000 0.5000
vt 0.5000 0.3750
vt 2.0000 0.3750
vt 0.5000 0.5000
vt 0.5000 0.3750
vt 0.3750 0.5000
vt 0.3750 0.3750
vt 0.2500 0.3750
vt 0.3750 0.5000
vt 0.3750 0.3750
vt -1.0000 0.3750
vt 0.3750 0.3750
vt 0.5000 0.5000
vt 0.5000 0.3750
vt 1.1875 0.3750
vt 0.3750 0.5000
vt 0.5000 0.5000
vt 0.5000 0.3750
vt 0.4375 1.3750
vt 0.5625 0.3750
vt 0.4375 -0.6250
vt 0.4375 0.2500
vt 0.5625 0.3750
vt 0.4375 0.3750
vt 0.4375 0.5000
vt 0.4375 0.3750
vt 2.0000 0.3750
vt 0.5625 0.2500
vt 0.6875 0.3750
vt 0.5625 0.2500
vt 0.5000 0.5000
vt 0.5625 0.5625
vt 0.5625 0.5000
vt 0.4375 0.5000
vt 0.5000 0.5938
vt 0.4375 0.5000
vt 0.3750 0.6250
vt 0.3750 0.5000
vt -0.3125 0.5000
vt 0.5625 0.5312
vt 0.5625 0.5000
vt -0.3125 0.4375
vt 0.3750 0.5000
vt 0.4375 0.6250
vt -0.3125 0.5000
vt 0.5625 0.4375
vt 0.5625 0.5000
vt 0.5000 0.5000
vt 0.4375 0.5938
vt -0.3125 0.5625
vt 0.5625 0.5000
vt 0.5625 0.5625
vt -0.3125 0.4375
vt 0.5625 0.5000
vt 0.5000 0.5625
vt -0.3125 0.3750
vt 0.5625 0.3125
vt 0.5625 0.3750
vt -0.3125 0.5000
vt 0.3125 0.5000
vt 0.3750 0.5312
vt 0.3750 0.5000
vt 0.6250 0.5000
vt 0.5625 0.5312
vt 2.0000 0.3750
vt 0.5625 -0.6250
vt 0.5625 0.3750
vt 0.3750 1.3750
vt 0.3625 0.3750
vt 0.3750 0.3750
vt -0.9375 0.3750
vt 0.5000 0.3625
vt 0.5000 0.3750
vt 0.3750 -0.6250
vt 0.3625 0.3750
vt 0.3750 0.3750
vt -1.0000 0.3750
vt 0.5000 1.3750
vt 0.5000 0.3750
vt 0.3750 -1.0000
vt 0.3875 0.5000
vt 0.3750 0.5000
vt 0.3750 -0.6250
vt 0.3875 0.3750
vt 0.3750 0.3750
vt 0.3750 2.0000
vt 0.3875 0.5000
vt 0.3750 0.5000
vt 3.0000 0.3750
vt 0.5000 1.3750
vt 0.5000 0.3750
vt -2.0000 0.3750
vt 0.5000 0.3875
vt 0.3750 -0.6250
vt 0.3875 0.3750
vt 0.3750 0.3750
vt 3.0000 0.3750
vt 0.5000 0.3875
vt 2.0000 0.3750
vt 0.5000 1.3750
vt 0.5000 0.3750
vt 0.3750 2.0000
vt 0.3625 0.5000
vt 0.3750 0.5000
vt 0.3750 -1.0000
vt 0.3625 0.5000
vt 0.3750 0.5000
vt 0.3750 1.3750
vt 0.3625 0.3750
vt 0.3750 0.3750
vt 0.2500 0.3750
vt 0.4375 0.3625
vt 0.4375 0.3750
vt 0.4375 -0.6250
vt 0.2500 0.3750
vt 0.4375 0.3750
vt 0.3750 -0.6250
vt 0.3625 0.3750
vt 0.3750 0.3750
vt 0.3750 1.3750
vt 0.3625 0.3750
vt 0.3750 0.3750
vt 0.6875 0.3750
vt 0.5000 0.3625
vt -2.0000 1.3750
vt -2.0000 2.0000
vt -1.0000 0.2500
vt 2.0000 1.3750
vt 0.6250 0.2500
vt 2.0000 0.2500
vt -2.0000 0.2500
vt 0.6250 0.6250
vt 0.2500 1.3750
vt 0.3750 0.6250
vt 0.6250 0.2500
vt 0.3750 0.2500
vt 0.3750 0.6250
vt 0.6250 0.6250
vt 0.3750 0.2500
vt 0.6250 0.5000
vt -0.9375 0.3750
vt 0.2500 -0.6250
vt 3.0000 0.5000
vt 0.3875 1.3750
vt 0.2500 0.5000
vt 0.2500 0.5000
vt 0.3625 -0.6250
vt -1.0000 1.3750
vt 0.3875 1.3750
vt -0.1875 0.5000
vt 2.0000 -0.6250
vt 2.0000 0.5000
vt 0.5000 1.3750
vt 0.2500 1.3750
vt 0.6250 1.3750
vt 0.5000 1.3750
vt -1.0000 0.5000
vt 0.8125 0.5000
vt 0.6250 1.3750
vt 2.0000 0.3625
vt 0.5625 -0.6250
vt -0.1875 0.2500
vt 0.2500 -0.6250
vt 0.2500 -0.6250
vt 0.8125 0.2500
vt -2.0000 0.3750
vt 0.3750 2.0000
vt 0.6250 -1.0000
vt 0.6250 0.6250
vt 0.6250 0.3750
vt 0.3750 0.6250
vt -0.9375 0.5000
vt 1.1875 0.6250
vt 0.6250 0.5000
vt 2.0000 0.5000
vt 0.2500 0.5000
vt -1.0000 0.5000
vt -0.9375 0.6250
vt 1.1875 0.5000
vt 0.5625 0.5000
vt 0.5625 1.3750
vt 0.5625 0.2500
vt 0.5625 0.5000
vt 2.0000 0.2500
vt 0.6875 0.2500
vt 1.1875 0.2500
vt 0.5000 0.5625
vt 0.4375 0.5938
vt 0.4375 0.6250
vt -0.3125 0.5312
vt 0.5625 0.4375
vt -0.3125 0.3750
vt 0.3750 0.6250
vt 0.5000 0.5938
vt -0.3125 0.3125
vt 0.3125 0.5312
vt 0.6250 0.5312
vt 2.0000 -0.6250
vt 0.3625 1.3750
vt -0.9375 0.3625
vt 0.3625 -0.6250
vt -1.0000 1.3750
vt 0.3875 -1.0000
vt 0.3875 -0.6250
vt 0.3875 2.0000
vt 3.0000 1.3750
vt -2.0000 0.3875
vt 0.3875 -0.6250
vt 3.0000 0.3875
vt 2.0000 1.3750
vt 0.3625 2.0000
vt 0.3625 -1.0000
vt 0.3625 1.3750
vt 0.2500 0.3625
vt 0.2500 -0.6250
vt 0.3625 -0.6250
vt 0.3625 1.3750
vt 0.6875 0.3625
vn 0.0000 0.0000 -1.0000
vn 0.0000 1.0000 0.0000
vn 1.0000 0.0000 0.0000
vn -1.0000 0.0000 0.0000
vn 0.0000 0.0000 1.0000
vn 0.0000 -1.0000 0.0000
usemtl Material
s off
f 1/1/1 40/2/1 3/3/1
f 4/4/2 1/5/2 3/6/2
f 20/7/3 6/8/3 5/9/3
f 2/10/3 33/11/3 1/12/3
f 6/8/3 18/13/3 5/9/3
f 10/14/4 9/15/4 24/16/4
f 13/17/5 15/18/5 14/19/5
f 16/20/1 19/21/1 17/22/1
f 10/23/4 44/24/4 27/25/4
f 20/26/3 23/27/3 21/28/3
f 26/29/4 37/30/4 24/16/4
f 15/18/5 22/31/5 14/19/5
f 9/15/4 26/29/4 24/16/4
f 13/32/5 25/33/5 12/34/5
f 10/35/4 28/36/4 11/37/4
f 8/38/1 27/25/1 7/39/1
f 27/25/1 30/40/1 7/39/1
f 41/41/3 57/42/3 35/43/3
f 76/44/5 29/45/5 53/46/5
f 34/47/5 51/48/5 49/49/5
f 39/50/5 69/51/5 32/52/5
f 39/53/4 112/54/4 14/55/4
f 30/56/1 65/57/1 47/58/1
f 31/59/1 70/60/1 41/61/1
f 20/62/1 119/63/1 36/64/1
f 3/65/4 29/66/4 4/67/4
f 37/68/1 108/69/1 24/70/1
f 67/71/5 49/72/5 48/73/5
f 74/74/5 29/75/5 73/76/5
f 33/77/1 60/78/1 40/79/1
f 34/80/3 54/81/3 33/82/3
f 20/83/3 42/84/3 22/85/3
f 16/86/1 41/87/1 18/88/1
f 18/13/3 35/89/3 5/9/3
f 13/90/5 43/91/5 26/29/5
f 37/92/4 63/93/4 38/94/4
f 49/95/5 55/96/5 34/97/5
f 22/31/5 39/98/5 14/19/5
f 31/99/6 106/100/6 72/101/6
f 47/58/1 78/102/1 120/103/1
f 46/104/2 50/105/2 89/106/2
f 49/107/3 46/108/3 47/109/3
f 89/110/4 48/111/4 45/112/4
f 55/113/2 65/114/2 66/115/2
f 54/116/2 59/117/2 60/78/2
f 55/118/2 56/119/2 54/81/2
f 60/120/2 57/121/2 53/46/2
f 57/121/2 52/122/2 53/46/2
f 59/117/2 58/123/2 60/78/2
f 54/81/2 71/124/2 69/125/2
f 66/126/2 63/127/2 55/96/2
f 72/128/1 52/129/1 31/130/1
f 67/131/2 65/132/2 68/133/2
f 42/134/5 59/135/5 39/136/5
f 35/137/3 58/138/3 36/139/3
f 36/139/3 61/140/3 42/141/3
f 38/142/4 62/143/4 44/144/4
f 40/145/4 53/46/4 29/45/4
f 52/122/2 76/44/2 53/46/2
f 43/146/4 56/147/4 37/148/4
f 65/57/1 45/149/1 47/58/1
f 32/52/5 71/150/5 43/146/5
f 44/144/1 66/151/1 30/152/1
f 73/76/5 67/71/5 48/73/5
f 45/153/1 88/154/1 89/106/1
f 50/155/5 73/76/5 48/73/5
f 67/156/2 75/157/2 64/158/2
f 64/159/1 72/101/1 45/160/1
f 16/161/1 77/162/1 88/154/1
f 78/163/1 8/38/1 7/39/1
f 45/149/6 49/164/6 47/58/6
f 87/165/4 99/166/4 81/167/4
f 85/168/4 93/169/4 87/165/4
f 82/170/3 88/171/3 77/172/3
f 83/173/1 100/174/1 80/175/1
f 91/176/2 46/104/2 89/106/2
f 79/177/4 91/178/4 85/168/4
f 93/179/2 94/180/2 92/181/2
f 84/182/3 94/183/3 82/170/3
f 99/184/2 96/185/2 98/186/2
f 91/176/1 94/180/1 95/187/1
f 86/188/3 96/189/3 84/182/3
f 101/190/2 103/191/2 100/192/2
f 93/179/1 96/185/1 97/193/1
f 81/194/4 101/195/4 83/196/4
f 80/197/3 103/198/3 86/188/3
f 105/199/1 107/200/1 106/201/1
f 72/202/3 107/203/3 88/204/3
f 88/205/2 104/206/2 16/207/2
f 16/208/4 105/209/4 31/210/4
f 108/211/4 111/212/4 109/213/4
f 24/214/2 109/215/2 10/216/2
f 10/217/5 111/218/5 38/219/5
f 38/220/6 110/221/6 37/222/6
f 112/223/5 114/224/5 113/225/5
f 32/226/6 115/227/6 39/136/6
f 13/228/3 114/229/3 32/230/3
f 14/231/2 113/232/2 13/90/2
f 116/233/3 119/234/3 117/235/3
f 5/236/2 117/237/2 20/238/2
f 36/239/6 118/240/6 35/241/6
f 35/242/5 116/243/5 5/244/5
f 7/245/2 123/246/2 78/247/2
f 123/248/1 121/249/1 124/250/1
f 78/251/4 124/252/4 120/253/4
f 30/254/3 122/255/3 7/256/3
f 120/257/6 121/258/6 30/152/6
f 1/1/1 33/259/1 40/2/1
f 4/4/2 2/260/2 1/5/2
f 20/7/3 21/261/3 6/8/3
f 2/10/3 34/262/3 33/11/3
f 6/8/3 19/263/3 18/13/3
f 10/14/4 11/264/4 9/15/4
f 13/17/5 12/265/5 15/18/5
f 16/20/1 18/266/1 19/21/1
f 10/23/4 38/267/4 44/24/4
f 20/26/3 22/268/3 23/27/3
f 26/29/4 43/91/4 37/30/4
f 15/18/5 23/269/5 22/31/5
f 9/15/4 25/270/4 26/29/4
f 13/32/5 26/271/5 25/33/5
f 10/35/4 27/272/4 28/36/4
f 8/38/1 28/273/1 27/25/1
f 27/25/1 44/24/1 30/40/1
f 41/41/3 70/274/3 57/42/3
f 76/44/5 73/275/5 29/45/5
f 34/47/5 2/276/5 51/48/5
f 39/50/5 59/277/5 69/51/5
f 39/53/4 115/278/4 112/54/4
f 30/56/1 66/279/1 65/57/1
f 31/59/1 52/280/1 70/60/1
f 20/62/1 117/281/1 119/63/1
f 3/65/4 40/282/4 29/66/4
f 37/68/1 110/283/1 108/69/1
f 67/71/5 68/284/5 49/72/5
f 74/74/5 4/285/5 29/75/5
f 33/77/1 54/116/1 60/78/1
f 34/80/3 55/286/3 54/81/3
f 20/83/3 36/287/3 42/84/3
f 16/86/1 31/288/1 41/87/1
f 18/13/3 41/289/3 35/89/3
f 13/90/5 32/290/5 43/91/5
f 37/92/4 56/291/4 63/93/4
f 49/95/5 68/292/5 55/96/5
f 22/31/5 42/293/5 39/98/5
f 31/99/6 105/294/6 106/100/6
f 47/58/1 46/295/1 78/102/1
f 46/104/2 51/296/2 50/105/2
f 49/107/3 51/297/3 46/108/3
f 89/110/4 50/298/4 48/111/4
f 55/113/2 68/299/2 65/114/2
f 54/116/2 69/300/2 59/117/2
f 55/118/2 63/301/2 56/119/2
f 60/120/2 58/302/2 57/121/2
f 57/121/2 70/303/2 52/122/2
f 59/117/2 61/304/2 58/123/2
f 54/81/2 56/119/2 71/124/2
f 66/126/2 62/305/2 63/127/2
f 72/128/1 75/306/1 52/129/1
f 67/131/2 64/307/2 65/132/2
f 42/134/5 61/308/5 59/135/5
f 35/137/3 57/309/3 58/138/3
f 36/139/3 58/138/3 61/140/3
f 38/142/4 63/310/4 62/143/4
f 40/145/4 60/311/4 53/46/4
f 52/122/2 75/312/2 76/44/2
f 43/146/4 71/150/4 56/147/4
f 65/57/1 64/313/1 45/149/1
f 32/52/5 69/51/5 71/150/5
f 44/144/1 62/143/1 66/151/1
f 73/76/5 76/314/5 67/71/5
f 45/153/1 72/315/1 88/154/1
f 50/155/5 74/74/5 73/76/5
f 67/156/2 76/316/2 75/157/2
f 64/159/1 75/317/1 72/101/1
f 16/161/1 17/318/1 77/162/1
f 78/163/1 79/319/1 8/38/1
f 45/149/6 48/320/6 49/164/6
f 87/165/4 97/321/4 99/166/4
f 85/168/4 95/322/4 93/169/4
f 82/170/3 90/323/3 88/171/3
f 83/173/1 101/324/1 100/174/1
f 88/154/2 90/325/2 89/106/2
f 91/176/2 78/326/2 46/104/2
f 89/106/2 90/325/2 91/176/2
f 79/177/4 78/327/4 91/178/4
f 93/179/2 95/187/2 94/180/2
f 84/182/3 92/328/3 94/183/3
f 99/184/2 97/193/2 96/185/2
f 91/176/1 90/325/1 94/180/1
f 86/188/3 98/186/3 96/189/3
f 101/190/2 102/329/2 103/191/2
f 93/179/1 92/181/1 96/185/1
f 81/194/4 102/330/4 101/195/4
f 80/197/3 100/331/3 103/198/3
f 105/199/1 104/332/1 107/200/1
f 72/202/3 106/333/3 107/203/3
f 88/205/2 107/334/2 104/206/2
f 16/208/4 104/335/4 105/209/4
f 108/211/4 110/336/4 111/212/4
f 24/214/2 108/337/2 109/215/2
f 10/217/5 109/338/5 111/218/5
f 38/220/6 111/339/6 110/221/6
f 112/223/5 115/340/5 114/224/5
f 32/226/6 114/341/6 115/227/6
f 13/228/3 113/342/3 114/229/3
f 14/231/2 112/343/2 113/232/2
f 116/233/3 118/344/3 119/234/3
f 5/236/2 116/345/2 117/237/2
f 36/239/6 119/346/6 118/240/6
f 35/242/5 118/347/5 116/243/5
f 7/245/2 122/348/2 123/246/2
f 123/248/1 122/349/1 121/249/1
f 78/251/4 123/350/4 124/252/4
f 30/254/3 121/351/3 122/255/3
f 120/257/6 124/352/6 121/258/6
usemtl Material_NONE
f 99/184/1 103/191/1 102/329/1
f 99/184/1 98/186/1 103/191/1
