# Blender v2.77 (sub 0) OBJ File: 'limb.blend'
# www.blender.org
o Cube
v 0.125000 1.437500 -0.125000
v 0.125000 1.437500 0.125000
v 0.187500 -0.187500 0.187500
v 0.187500 -0.187500 -0.187500
v -0.125000 1.437500 -0.125000
v -0.125000 1.437500 0.125000
v -0.187500 -0.187500 0.187500
v -0.187500 -0.187500 -0.187500
vt 1.0000 0.0000
vt 0.0000 1.0000
vt 0.0000 0.0000
vt 1.0000 0.0000
vt 0.0000 1.0000
vt 0.0000 0.0000
vt 1.0000 0.0000
vt 0.0000 1.0000
vt 1.0000 0.0000
vt 0.0000 1.0000
vt 0.0000 0.0000
vt 1.0000 0.0000
vt 0.0000 0.0000
vt 1.0000 0.0000
vt 0.0000 1.0000
vt 1.0000 1.0000
vt 1.0000 1.0000
vt 1.0000 1.0000
vt 1.0000 1.0000
vt 1.0000 1.0000
vn 0.9993 0.0384 0.0000
vn -0.9993 0.0384 0.0000
vn 0.0000 1.0000 0.0000
vn 0.0000 0.0384 0.9993
vn 0.0000 -1.0000 -0.0000
vn -0.0000 0.0384 -0.9993
s off
f 2/1/1 4/2/1 1/3/1
f 8/4/2 6/5/2 5/6/2
f 5/7/3 2/8/3 1/3/3
f 6/9/4 3/10/4 2/11/4
f 7/12/5 4/2/5 3/13/5
f 1/14/6 8/15/6 5/6/6
f 2/1/1 3/16/1 4/2/1
f 8/4/2 7/17/2 6/5/2
f 5/7/3 6/18/3 2/8/3
f 6/9/4 7/17/4 3/10/4
f 7/12/5 8/19/5 4/2/5
f 1/14/6 4/20/6 8/15/6
