# Blender v2.77 (sub 0) OBJ File: 'loop.blend'
# www.blender.org
mtllib loop.mtl
o Cube
v -2.500000 0.000000 0.500000
v -2.500000 0.000000 -0.500000
v -2.500000 8.000000 0.500000
v -2.500000 8.000000 -0.500000
v 2.500000 0.000000 -0.500000
v 2.500000 0.000000 0.500000
v 2.500000 8.000000 -0.500000
v 2.500000 8.000000 0.500000
v -1.500000 1.000000 -0.500000
v -1.500000 1.000000 0.500000
v 1.500000 1.000000 0.500000
v 1.500000 1.000000 -0.500000
v -1.500000 7.000000 -0.500000
v -1.500000 7.000000 0.500000
v 1.500000 7.000000 0.500000
v 1.500000 7.000000 -0.500000
vt 0.2500 0.2500
vt 2.7500 0.7500
vt 0.2500 0.7500
vt 0.7500 0.0000
vt 0.2500 -3.0000
vt 0.7500 -3.0000
vt 0.7500 0.5000
vt -1.2500 0.0000
vt 0.2500 0.0000
vt 0.2500 4.5000
vt 0.7500 0.5000
vt 0.2500 0.5000
vt 0.7500 -3.5000
vt 0.2500 0.0000
vt 0.7500 0.5000
vt 0.2500 0.7500
vt 2.7500 0.2500
vt 0.2500 0.2500
vt 0.7500 -3.5000
vt 0.7500 4.5000
vt 0.2500 0.5000
vt 0.7500 0.5000
vt 0.2500 -0.5000
vt 2.2500 0.0000
vt 0.7500 0.0000
vt 0.7500 -3.0000
vt 0.7500 0.0000
vt 0.2500 0.5000
vt 2.2500 0.0000
vt 0.7500 0.7500
vt 2.2500 0.2500
vt 2.2500 0.7500
vt 0.7500 3.0000
vt 0.7500 0.7500
vt 2.2500 0.2500
vt 0.7500 0.2500
vt 0.2500 -3.5000
vt -1.7500 0.5000
vt 0.2500 1.0000
vt 2.7500 0.2500
vt 0.2500 0.0000
vt -1.7500 0.5000
vt 0.7500 4.5000
vt 0.2500 -3.0000
vt 2.7500 0.7500
vt 0.2500 -3.0000
vt 0.2500 4.5000
vt 2.7500 -0.5000
vt 2.7500 0.5000
vt 0.7500 0.2500
vt 0.2500 3.5000
vt 2.2500 0.7500
vt -1.2500 1.0000
vn 0.0000 1.0000 0.0000
vn 1.0000 -0.0000 0.0000
vn 0.0000 -0.0000 1.0000
vn -1.0000 -0.0000 -0.0000
vn 0.0000 0.0000 -1.0000
vn 0.0000 -1.0000 0.0000
usemtl Material
s off
f 3/1/1 7/2/1 4/3/1
f 13/4/2 10/5/2 9/6/2
f 8/7/3 14/8/3 15/9/3
f 3/10/4 2/11/4 1/12/4
f 5/13/5 16/14/5 7/15/5
f 2/16/6 6/17/6 1/18/6
f 15/9/3 6/19/3 8/7/3
f 7/20/2 6/21/2 5/22/2
f 1/23/3 11/24/3 10/25/3
f 12/26/4 15/9/4 16/27/4
f 4/28/5 16/29/5 13/4/5
f 9/30/1 11/31/1 12/32/1
f 14/33/3 1/23/3 10/25/3
f 13/34/6 15/35/6 14/36/6
f 4/28/5 9/6/5 2/37/5
f 2/38/5 12/39/5 5/22/5
f 3/1/1 8/40/1 7/2/1
f 13/4/2 14/41/2 10/5/2
f 8/7/3 3/42/3 14/8/3
f 3/10/4 4/43/4 2/11/4
f 5/13/5 12/44/5 16/14/5
f 2/16/6 5/45/6 6/17/6
f 15/9/3 11/46/3 6/19/3
f 7/20/2 8/47/2 6/21/2
f 1/23/3 6/48/3 11/24/3
f 12/26/4 11/46/4 15/9/4
f 4/28/5 7/49/5 16/29/5
f 9/30/1 10/50/1 11/31/1
f 14/33/3 3/51/3 1/23/3
f 13/34/6 16/52/6 15/35/6
f 4/28/5 13/4/5 9/6/5
f 2/38/5 9/53/5 12/39/5
